<svg xmlns="http://www.w3.org/2000/svg" width="64" height="64" viewBox="0 0 100 100" fill="none">
  <!-- כתר זהב של חסדי המלך -->
  <defs>
    <linearGradient id="crownGrad" x1="0%" y1="0%" x2="0%" y2="100%">
      <stop offset="0%" style="stop-color:#f0c040"/>
      <stop offset="100%" style="stop-color:#c9a227"/>
    </linearGradient>
    <linearGradient id="baseGrad" x1="0%" y1="0%" x2="0%" y2="100%">
      <stop offset="0%" style="stop-color:#d4a830"/>
      <stop offset="100%" style="stop-color:#a07820"/>
    </linearGradient>
  </defs>
  <!-- רקע עגול -->
  <circle cx="50" cy="50" r="48" fill="#4c1d95"/>
  <!-- כתר -->
  <path d="M15 65 L15 42 L32 55 L50 22 L68 55 L85 42 L85 65 Z" fill="url(#crownGrad)" stroke="#a07820" stroke-width="1.5" stroke-linejoin="round"/>
  <!-- בסיס הכתר -->
  <rect x="15" y="65" width="70" height="12" rx="3" fill="url(#baseGrad)" stroke="#a07820" stroke-width="1.5"/>
  <!-- לב קטן במרכז -->
  <path d="M50 52 C50 52 43 46 43 41.5 C43 38.5 45 36.5 47.5 36.5 C49 36.5 50 37.5 50 37.5 C50 37.5 51 36.5 52.5 36.5 C55 36.5 57 38.5 57 41.5 C57 46 50 52 50 52Z" fill="#fff" opacity="0.95"/>
  <!-- נקודות קישוט -->
  <circle cx="15" cy="42" r="4" fill="#f0c040"/>
  <circle cx="50" cy="22" r="4.5" fill="#f0c040"/>
  <circle cx="85" cy="42" r="4" fill="#f0c040"/>
</svg>